<svg xmlns="http://www.w3.org/2000/svg" viewBox="0 0 32 32">
	<rect width="28" height="28" x="1" y="1" rx="5" fill="#d6ff3f" stroke="#0e0e0c" stroke-width="2" />
	<path fill="#0e0e0c" d="M8 21v-3c1.3.8 2.6 1.2 3.9 1.2 1.1 0 1.7-.3 1.7-1 0-.5-.5-.8-2.2-1.4C9 16 8 14.7 8 12.7 8 10 10 8.4 13.2 8.4c1.2 0 2.3.2 3.3.7V12a7 7 0 0 0-3.2-.8c-1.1 0-1.7.4-1.7 1s.5.8 2.2 1.4c2.4.8 3.4 2 3.4 4.1 0 2.8-2 4.4-5.4 4.4-1.5 0-2.8-.3-3.8-1.1Zm11.2.8v-5.2L15.4 8.7h3.8l1.8 4.7 1.8-4.7h3.7l-3.8 7.9v5.2h-3.5Z" />
</svg>
